<?xml version="1.0" encoding="utf-8"?>
<!-- Generator: Adobe Illustrator 26.5.0, SVG Export Plug-In . SVG Version: 6.00 Build 0)  -->
<svg version="1.1" id="レイヤー_1" xmlns="http://www.w3.org/2000/svg" xmlns:xlink="http://www.w3.org/1999/xlink" x="0px"
	 y="0px" viewBox="0 0 150 150" style="enable-background:new 0 0 150 150;" xml:space="preserve">
<style type="text/css">
	.st0{fill:#1B2B36;}
	.st1{fill:#FFFFFF;}
	.st2{fill:none;stroke:#FFFFFF;stroke-miterlimit:10;}
</style>
<g>
	<g>
		<ellipse class="st0" cx="74.83" cy="64.83" rx="16.04" ry="12.79"/>
		<ellipse class="st0" cx="75.53" cy="53.46" rx="14.09" ry="4.94"/>
		<rect x="65.44" y="56.03" class="st0" width="22.05" height="45.75"/>
		<path class="st0" d="M55.19,95.18l-6.49-2.24c0,0-0.12,0.94-0.12-1.65l4.95-27c0,0-0.23-5.01,8.1-8.08
			c0.05-0.02,0.1-0.04,0.15-0.06c8.49-3.07,9.55,4.13,9.55,4.13v41.98h-11.2c0,0-2.02-0.18-2.73-2.35
			c-0.11-0.34-0.19-0.74-0.22-1.18C56.95,95.42,55.19,95.18,55.19,95.18z"/>
		<path class="st0" d="M95.59,95.18l6.49-2.24c0,0,0.12,0.94,0.12-1.65l-4.95-27c0,0,0.23-5.01-8.1-8.08
			c-0.05-0.02-0.1-0.04-0.15-0.06c-8.49-3.07-9.55,4.13-9.55,4.13v41.98h11.2c0,0,2.02-0.18,2.73-2.35
			c0.11-0.34,0.19-0.74,0.22-1.18C93.82,95.42,95.59,95.18,95.59,95.18z"/>
		<path class="st1" d="M71.72,76.48L71.72,76.48c-0.64-0.12-1.06-0.74-0.94-1.38l2.1-11.06c0.12-0.64,0.74-1.06,1.38-0.94l0,0
			c0.64,0.12,1.06,0.74,0.94,1.38l-2.1,11.06C72.98,76.18,72.36,76.6,71.72,76.48z"/>
		<path class="st1" d="M77.62,75.83L77.62,75.83c-0.65,0-1.18-0.53-1.18-1.18V63.39c0-0.65,0.53-1.18,1.18-1.18h0
			c0.65,0,1.18,0.53,1.18,1.18v11.26C78.8,75.3,78.27,75.83,77.62,75.83z"/>
		<path class="st0" d="M53,98.55l-2.15-0.72c-1.79-0.6-2.75-2.54-2.15-4.33l0,0c0.6-1.79,2.54-2.75,4.33-2.15l2.15,0.72
			c1.79,0.6,2.75,2.54,2.15,4.33l0,0C56.73,98.19,54.79,99.15,53,98.55z"/>
		<path class="st0" d="M97.78,98.55l2.15-0.72c1.79-0.6,2.75-2.54,2.15-4.33v0c-0.6-1.79-2.54-2.75-4.33-2.15l-2.15,0.72
			c-1.79,0.6-2.75,2.54-2.15,4.33v0C94.05,98.19,95.99,99.15,97.78,98.55z"/>
		<ellipse class="st1" cx="75.88" cy="52.03" rx="8.02" ry="2"/>
	</g>
	<g>
		<path class="st2" d="M58.65,84.75c0.17-0.27,0.4-0.5,0.67-0.68c0.41-0.27,0.89-0.4,1.42-0.4c0.8,0,1.4,0.33,1.78,0.98
			c0.23,0.39,0.34,0.9,0.34,1.52v3.32c0,0.18-0.06,0.33-0.19,0.45c-0.15,0.13-0.35,0.2-0.58,0.2c-0.3,0-0.52-0.11-0.66-0.32
			c-0.06-0.1-0.09-0.21-0.09-0.33v-3.05c0-0.34-0.06-0.63-0.17-0.87c-0.18-0.38-0.47-0.57-0.86-0.57c-0.42,0-0.8,0.19-1.14,0.57
			c-0.35,0.39-0.53,0.76-0.53,1.11v2.81c0,0.16-0.05,0.29-0.14,0.4c-0.14,0.17-0.35,0.25-0.62,0.25c-0.31,0-0.53-0.11-0.67-0.32
			c-0.06-0.09-0.09-0.21-0.09-0.33v-7.73c0-0.15,0.05-0.28,0.14-0.39c0.15-0.17,0.36-0.25,0.63-0.25c0.3,0,0.52,0.1,0.66,0.3
			c0.07,0.1,0.1,0.21,0.1,0.34V84.75z"/>
		<path class="st2" d="M67.43,83.61c0.88,0,1.61,0.29,2.18,0.88c0.6,0.61,0.9,1.42,0.9,2.41c0,0.79-0.18,1.46-0.55,2.02
			c-0.57,0.86-1.41,1.29-2.54,1.29c-0.98,0-1.76-0.34-2.33-1.03c-0.5-0.6-0.75-1.36-0.75-2.29c0-1,0.3-1.8,0.89-2.4
			C65.8,83.9,66.54,83.61,67.43,83.61z M67.41,84.88c-0.5,0-0.89,0.21-1.17,0.64c-0.24,0.36-0.36,0.81-0.36,1.37
			c0,0.42,0.07,0.78,0.2,1.1c0.27,0.62,0.71,0.93,1.35,0.93c0.5,0,0.89-0.21,1.17-0.63c0.24-0.36,0.36-0.83,0.36-1.39
			c0-0.57-0.13-1.04-0.38-1.39C68.3,85.08,67.91,84.88,67.41,84.88z"/>
		<path class="st2" d="M74.56,83.61c0.88,0,1.61,0.29,2.18,0.88c0.6,0.61,0.9,1.42,0.9,2.41c0,0.79-0.18,1.46-0.55,2.02
			c-0.57,0.86-1.41,1.29-2.54,1.29c-0.98,0-1.76-0.34-2.33-1.03c-0.5-0.6-0.75-1.36-0.75-2.29c0-1,0.3-1.8,0.89-2.4
			C72.93,83.9,73.67,83.61,74.56,83.61z M74.55,84.88c-0.5,0-0.89,0.21-1.17,0.64c-0.24,0.36-0.36,0.81-0.36,1.37
			c0,0.42,0.07,0.78,0.2,1.1c0.27,0.62,0.71,0.93,1.35,0.93c0.5,0,0.89-0.21,1.17-0.63c0.24-0.36,0.36-0.83,0.36-1.39
			c0-0.57-0.13-1.04-0.38-1.39C75.43,85.08,75.04,84.88,74.55,84.88z"/>
		<path class="st2" d="M83.35,84.43v-2.67c0-0.15,0.05-0.28,0.14-0.39c0.14-0.17,0.35-0.25,0.62-0.25c0.3,0,0.52,0.11,0.66,0.32
			c0.06,0.1,0.09,0.21,0.09,0.33v7.74c0,0.18-0.04,0.32-0.13,0.42c-0.12,0.14-0.29,0.22-0.5,0.22c-0.36,0-0.57-0.19-0.64-0.56
			l-0.09-0.5c-0.16,0.3-0.37,0.54-0.64,0.72c-0.39,0.26-0.86,0.39-1.38,0.39c-1,0-1.76-0.4-2.3-1.21c-0.38-0.57-0.57-1.26-0.57-2.08
			c0-0.8,0.21-1.49,0.62-2.07c0.57-0.8,1.33-1.2,2.3-1.2C82.32,83.64,82.93,83.9,83.35,84.43z M83.36,87.01v-0.47
			c0-0.59-0.26-1.06-0.79-1.39c-0.25-0.16-0.52-0.24-0.81-0.24c-0.5,0-0.91,0.21-1.21,0.63c-0.26,0.36-0.39,0.82-0.39,1.37
			c0,0.47,0.09,0.88,0.28,1.21c0.29,0.53,0.73,0.8,1.31,0.8c0.38,0,0.72-0.15,1.01-0.45C83.16,88.07,83.36,87.59,83.36,87.01z"/>
		<path class="st2" d="M87.83,81.04c0.17,0,0.34,0.05,0.49,0.15c0.31,0.18,0.46,0.46,0.46,0.81c0,0.25-0.09,0.47-0.26,0.65
			c-0.19,0.21-0.42,0.31-0.71,0.31c-0.16,0-0.31-0.04-0.46-0.12c-0.33-0.19-0.5-0.47-0.5-0.85c0-0.3,0.11-0.54,0.33-0.73
			C87.39,81.12,87.6,81.04,87.83,81.04z M88.6,84.34v5.14c0,0.16-0.05,0.29-0.15,0.4c-0.15,0.17-0.36,0.26-0.63,0.26
			c-0.3,0-0.53-0.11-0.67-0.32c-0.06-0.1-0.09-0.21-0.09-0.34v-5.14c0-0.23,0.1-0.41,0.3-0.53c0.14-0.09,0.29-0.13,0.46-0.13
			c0.2,0,0.38,0.06,0.53,0.17C88.52,83.97,88.6,84.13,88.6,84.34z"/>
		<path class="st2" d="M91.84,87.28c0.02,0.47,0.19,0.86,0.5,1.15c0.34,0.32,0.77,0.48,1.29,0.48c0.59,0,1.09-0.21,1.51-0.64
			c0.11-0.12,0.25-0.18,0.4-0.18c0.17,0,0.33,0.07,0.47,0.22c0.13,0.14,0.2,0.3,0.2,0.49c0,0.21-0.11,0.42-0.32,0.63
			c-0.56,0.54-1.33,0.8-2.32,0.8c-0.86,0-1.57-0.24-2.15-0.71c-0.76-0.62-1.14-1.48-1.14-2.58c0-0.82,0.21-1.52,0.64-2.1
			c0.59-0.81,1.43-1.21,2.5-1.21c0.89,0,1.62,0.33,2.19,0.98c0.49,0.55,0.73,1.17,0.73,1.86c0,0.3-0.06,0.52-0.17,0.64
			c-0.12,0.13-0.33,0.2-0.61,0.2H91.84z M91.86,86.1h2.76c0.12,0,0.18-0.05,0.18-0.15c0-0.21-0.09-0.42-0.26-0.64
			c-0.27-0.33-0.65-0.5-1.13-0.5c-0.29,0-0.56,0.07-0.81,0.22C92.18,85.28,91.94,85.63,91.86,86.1z"/>
	</g>
</g>
</svg>
